<?xml version="1.0" standalone="no"?>
<!DOCTYPE svg PUBLIC "-//W3C//DTD SVG 20010904//EN"
 "http://www.w3.org/TR/2001/REC-SVG-20010904/DTD/svg10.dtd">
<svg version="1.0" xmlns="http://www.w3.org/2000/svg"
 width="256.000000pt" height="256.000000pt" viewBox="0 0 256.000000 256.000000"
 preserveAspectRatio="xMidYMid meet">

<g transform="translate(0.000000,256.000000) scale(0.100000,-0.100000)"
fill="#000000" stroke="none">
<path d="M1072 2275 c-130 -28 -203 -73 -344 -211 l-100 -97 74 -75 c40 -41
99 -94 132 -118 68 -51 99 -55 173 -23 26 12 62 25 80 29 27 7 32 5 37 -15 3
-12 18 -31 33 -40 16 -10 31 -24 36 -31 12 -20 75 -37 112 -30 19 4 49 20 67
36 18 17 36 30 41 30 4 0 14 13 20 29 l13 30 69 -26 c110 -40 136 -41 195 -3
28 18 64 35 80 39 16 3 58 35 99 74 68 66 83 87 61 87 -5 0 -57 46 -115 103
-157 153 -266 210 -427 223 l-83 7 21 -24 c49 -55 57 -112 24 -166 -24 -40
-67 -63 -120 -63 -32 0 -48 7 -78 34 -35 32 -37 38 -37 95 0 52 4 63 29 90
l30 31 -30 -1 c-16 0 -57 -7 -92 -14z m-129 -350 c1 -5 -6 -11 -15 -13 -11 -2
-18 3 -18 13 0 17 30 18 33 0z m687 0 c0 -8 -9 -15 -20 -15 -11 0 -20 7 -20
15 0 8 9 15 20 15 11 0 20 -7 20 -15z"/>
<path d="M453 1949 c-24 -7 -39 -21 -53 -49 -33 -64 -27 -105 27 -184 48 -70
55 -98 39 -163 -7 -26 -5 -32 10 -36 13 -3 12 -4 -3 -2 -20 2 -24 -7 -47 -104
-58 -247 -82 -416 -95 -656 -13 -236 -5 -258 126 -324 160 -81 609 -125 1040
-102 324 17 497 47 621 110 114 58 124 85 112 307 -13 239 -41 431 -101 685
-18 77 -22 86 -42 84 -15 -2 -16 -1 -3 2 15 4 17 10 10 36 -16 65 -9 93 39
163 54 79 60 120 27 184 -33 65 -108 75 -195 25 -40 -23 -133 -111 -124 -118
2 -2 25 -15 50 -30 25 -14 58 -44 73 -65 29 -42 56 -119 56 -159 0 -12 6 -23
13 -23 9 0 9 -2 0 -8 -6 -4 -13 -25 -14 -46 -4 -37 -2 -40 31 -52 l35 -13 -36
5 c-33 5 -37 3 -43 -19 -3 -14 -9 -32 -12 -41 -4 -11 5 -20 35 -32 23 -9 40
-18 37 -21 -2 -2 -21 3 -42 12 -37 15 -53 10 -54 -17 0 -5 -17 -26 -37 -49
-39 -44 -96 -76 -183 -104 -30 -10 -79 -29 -110 -43 -30 -13 -66 -28 -79 -34
-24 -9 -12 -22 234 -268 143 -143 255 -260 248 -260 -6 0 -124 115 -261 256
l-250 257 -83 -23 c-111 -30 -257 -30 -357 -1 -31 9 -33 9 -21 -7 7 -9 0 -5
-16 10 -28 25 -125 68 -295 133 -80 31 -150 86 -170 135 -7 17 -14 30 -15 30
-1 0 -19 -7 -40 -16 -20 -8 -39 -13 -41 -11 -3 3 14 12 37 21 30 12 39 21 35
32 -3 9 -9 27 -12 40 -3 13 -14 24 -23 24 -14 0 -14 2 -1 10 17 11 15 81 -3
92 -9 6 -9 8 1 8 6 0 12 11 12 23 0 40 27 117 56 158 32 47 85 81 135 89 l37
5 -75 79 c-68 72 -76 78 -96 67 -16 -8 -32 -8 -57 -1 -40 12 -44 11 -87 -1z
m54 -535 c-3 -3 -12 -4 -19 -1 -8 3 -5 6 6 6 11 1 17 -2 13 -5z m563 -469 c0
-5 -5 -3 -10 5 -5 8 -10 11 -10 5 0 -5 -20 10 -44 34 -25 24 -44 49 -43 55 1
6 -4 10 -11 8 -8 -1 -11 2 -7 9 8 12 125 -97 125 -116z m-268 -172 c-166 -176
-252 -260 -252 -248 0 9 370 385 379 385 2 0 -55 -62 -127 -137z"/>
<path d="M1005 1000 c21 -22 41 -40 44 -40 3 0 -13 18 -34 40 -21 22 -41 40
-44 40 -3 0 13 -18 34 -40z"/>
<path d="M1234 1506 c-47 -50 -132 -93 -216 -110 -52 -10 -58 -14 -44 -25 25
-21 91 -8 192 38 51 22 102 41 114 41 13 0 67 -20 122 -45 105 -47 166 -57
188 -30 10 13 9 15 -12 15 -72 0 -231 78 -276 135 -11 14 -21 25 -23 24 -2 0
-22 -20 -45 -43z"/>
</g>
</svg>
